<?xml version="1.0" encoding="utf-8"?>
<!-- Generator: Adobe Illustrator 15.1.0, SVG Export Plug-In . SVG Version: 6.00 Build 0)  -->
<!DOCTYPE svg PUBLIC "-//W3C//DTD SVG 1.1//EN" "http://www.w3.org/Graphics/SVG/1.1/DTD/svg11.dtd">
<svg version="1.1" id="Layer_1" xmlns="http://www.w3.org/2000/svg" xmlns:xlink="http://www.w3.org/1999/xlink" x="0px" y="0px"
	 width="200px" height="200px" viewBox="0 0 600 600" style="enable-background:new 0 0 600 600;" xml:space="preserve">
<g>
	<path fill="#fff" d="M182,140.2c20-3.5,60-7,98.5-7c46.5,0,75,4.5,100,19c23.5,12.5,40,35.5,40,66.5c0,29.5-17.5,57-55.5,71.5v1
		c38.5,10,67,39.5,67,82.5c0,31-14,55-35,72c-24.5,19.5-65.5,30.5-132.5,30.5c-37.5,0-65.5-2.5-82.5-5V140.2z M257.5,269.2h25
		c40.5,0,61.5-16.5,61.5-41.5c0-25.5-19.5-39-54-39c-17,0-26.5,1-32.5,2V269.2z M257.5,418.7c7.5,1,16.5,1,29.5,1
		c34.5,0,65-13.5,65-49c0-33.5-30.5-47-68.5-47h-26V418.7z"/>
</g>
</svg>
